<svg width="90" height="90" viewBox="0 0 90 90" fill="none" xmlns="http://www.w3.org/2000/svg">
<path d="M11.2871 42.075V58.9125C11.2871 75.75 18.0371 82.5 34.8746 82.5H55.0871C71.9246 82.5 78.6746 75.75 78.6746 58.9125V42.075" stroke="white" stroke-width="4" stroke-linecap="round" stroke-linejoin="round"/>
<path d="M44.9998 45C51.8623 45 56.9248 39.4125 56.2498 32.55L53.7748 7.5H36.2623L33.7498 32.55C33.0748 39.4125 38.1373 45 44.9998 45Z" stroke="white" stroke-width="4" stroke-linecap="round" stroke-linejoin="round"/>
<path d="M68.6625 45C76.2375 45 81.7875 38.85 81.0375 31.3125L79.9875 21C78.6375 11.25 74.8875 7.5 65.0625 7.5H53.625L56.25 33.7875C56.8875 39.975 62.475 45 68.6625 45Z" stroke="white" stroke-width="4" stroke-linecap="round" stroke-linejoin="round"/>
<path d="M21.1499 45C27.3374 45 32.9249 39.975 33.5249 33.7875L34.3499 25.5L36.1499 7.5H24.7124C14.8874 7.5 11.1374 11.25 9.78743 21L8.77493 31.3125C8.02493 38.85 13.5749 45 21.1499 45Z" stroke="white" stroke-width="4" stroke-linecap="round" stroke-linejoin="round"/>
<path d="M45 63.75C38.7375 63.75 35.625 66.8625 35.625 73.125V82.5H54.375V73.125C54.375 66.8625 51.2625 63.75 45 63.75Z" stroke="white" stroke-width="4" stroke-linecap="round" stroke-linejoin="round"/>
</svg>
