<svg width="62" height="55" viewBox="0 0 62 55" fill="none" xmlns="http://www.w3.org/2000/svg">
<path d="M58.7237 0.670898L34.707 17.7515L39.1731 7.68537L58.7237 0.670898Z" fill="#D7504A" stroke="black" stroke-width="0.5" stroke-linecap="round" stroke-linejoin="round"/>
<path d="M3.32666 0.670898L27.1294 17.911L22.8773 7.68535L3.32666 0.670898Z" fill="#D7504A" stroke="black" stroke-width="0.5" stroke-linecap="round" stroke-linejoin="round"/>
<path d="M50.0768 40.2753L43.6865 49.6583L57.3695 53.2794L61.2893 40.4802L50.0768 40.2753Z" fill="#D7504A" stroke="black" stroke-width="0.5" stroke-linecap="round" stroke-linejoin="round"/>
<path d="M0.784668 40.4802L4.68053 53.2794L18.3398 49.6583L11.9734 40.2753L0.784668 40.4802Z" fill="#D7504A" stroke="black" stroke-width="0.5" stroke-linecap="round" stroke-linejoin="round"/>
<path d="M17.6036 24.4243L13.8027 29.9357L27.3433 30.5278L26.8918 16.5217L17.6036 24.4243Z" fill="#D7504A" stroke="black" stroke-width="0.5" stroke-linecap="round" stroke-linejoin="round"/>
<path d="M44.4465 24.4244L35.0157 16.3623L34.707 30.5279L48.2474 29.9358L44.4465 24.4244Z" fill="#D7504A" stroke="black" stroke-width="0.5" stroke-linecap="round" stroke-linejoin="round"/>
<path d="M18.3398 49.6583L26.5353 45.855L19.4801 40.5714L18.3398 49.6583Z" fill="#D7504A" stroke="black" stroke-width="0.5" stroke-linecap="round" stroke-linejoin="round"/>
<path d="M35.5146 45.855L43.6864 49.6583L42.57 40.5714L35.5146 45.855Z" fill="#D7504A" stroke="black" stroke-width="0.5" stroke-linecap="round" stroke-linejoin="round"/>
<path d="M43.6865 49.6582L35.5146 45.855L36.1799 50.9563L36.1086 53.1199L43.6865 49.6582Z" fill="white" stroke="white" stroke-width="0.25" stroke-linecap="round" stroke-linejoin="round"/>
<path d="M18.3394 49.6582L25.9411 53.1199L25.8935 50.9563L26.535 45.855L18.3394 49.6582Z" fill="white" stroke="white" stroke-width="0.25" stroke-linecap="round" stroke-linejoin="round"/>
<path d="M26.0841 37.2007L19.29 35.2877L24.0888 33.1697L26.0841 37.2007Z" fill="white" stroke="white" stroke-width="0.25" stroke-linecap="round" stroke-linejoin="round"/>
<path d="M35.9658 37.2007L37.9613 33.1697L42.7836 35.2877L35.9658 37.2007Z" fill="white" stroke="white" stroke-width="0.25" stroke-linecap="round" stroke-linejoin="round"/>
<path d="M18.3396 49.6583L19.5273 40.2753L11.9731 40.4804L18.3396 49.6583Z" fill="#D7504A" stroke="black" stroke-width="0.5" stroke-linecap="round" stroke-linejoin="round"/>
<path d="M42.5225 40.2753L43.6865 49.6583L50.0767 40.4804L42.5225 40.2753Z" fill="#D7504A" stroke="black" stroke-width="0.5" stroke-linecap="round" stroke-linejoin="round"/>
<path d="M48.2476 29.9358L34.707 30.5279L35.966 37.2007L37.9615 33.1697L42.7838 35.2878L48.2476 29.9358Z" fill="#D7504A" stroke="black" stroke-width="0.5" stroke-linecap="round" stroke-linejoin="round"/>
<path d="M19.2897 35.2878L24.0882 33.1697L26.0838 37.2007L27.3427 30.5279L13.8022 29.9358L19.2897 35.2878Z" fill="#D7504A" stroke="black" stroke-width="0.5" stroke-linecap="round" stroke-linejoin="round"/>
<path d="M13.8022 29.9358L19.4798 40.5714L19.2898 35.2878L13.8022 29.9358Z" fill="#D7504A" stroke="black" stroke-width="0.5" stroke-linecap="round" stroke-linejoin="round"/>
<path d="M42.7841 35.2878L42.5703 40.5714L48.2478 29.9358L42.7841 35.2878Z" fill="#D7504A" stroke="black" stroke-width="0.5" stroke-linecap="round" stroke-linejoin="round"/>
<path d="M27.3431 30.5278L26.084 37.2008L27.6756 45.0806L28.032 34.6956L27.3431 30.5278Z" fill="#D7504A" stroke="black" stroke-width="0.5" stroke-linecap="round" stroke-linejoin="round"/>
<path d="M34.7072 30.5278L34.042 34.6729L34.3746 45.0806L35.9662 37.2008L34.7072 30.5278Z" fill="#D7504A" stroke="black" stroke-width="0.5" stroke-linecap="round" stroke-linejoin="round"/>
<path d="M35.9661 37.2007L34.3745 45.0806L35.5148 45.855L42.5702 40.5713L42.7839 35.2877L35.9661 37.2007Z" fill="#D7504A" stroke="black" stroke-width="0.5" stroke-linecap="round" stroke-linejoin="round"/>
<path d="M19.29 35.2877L19.4802 40.5713L26.5354 45.855L27.6757 45.0806L26.0841 37.2007L19.29 35.2877Z" fill="#D7504A" stroke="black" stroke-width="0.5" stroke-linecap="round" stroke-linejoin="round"/>
<path d="M36.1083 53.1199L36.1796 50.9563L35.5619 50.4553H26.4875L25.8935 50.9563L25.9411 53.1199L18.3394 49.6582L21.0001 51.7534L26.3924 55.329H35.6333L41.0495 51.7534L43.6863 49.6582L36.1083 53.1199Z" fill="#ABA8A9" stroke="#ABA8A9" stroke-width="0.25" stroke-linecap="round" stroke-linejoin="round"/>
<path d="M35.5146 45.855L34.3743 45.0806H27.6753L26.535 45.855L25.8936 50.9563L26.4875 50.4552H35.5619L36.1796 50.9563L35.5146 45.855Z" fill="#280000" stroke="#280000" stroke-width="0.25" stroke-linecap="round" stroke-linejoin="round"/>
<path d="M59.7449 18.8674L61.7642 9.43897L58.7234 0.670898L35.5146 17.1823L44.4465 24.4244L57.0605 27.9545L59.84 24.8344L58.6283 23.9916L60.5525 22.3065L59.0798 21.2133L61.004 19.8012L59.7449 18.8674Z" fill="#3E0000" stroke="#3E0000" stroke-width="0.25" stroke-linecap="round" stroke-linejoin="round"/>
<path d="M0.285645 9.43897L2.3286 18.8674L1.02207 19.8012L2.96999 21.2133L1.49716 22.3065L3.42133 23.9916L2.20981 24.8344L4.98919 27.9545L17.6033 24.4244L26.5352 17.1823L3.32632 0.670898L0.285645 9.43897Z" fill="#3E0000" stroke="#3E0000" stroke-width="0.25" stroke-linecap="round" stroke-linejoin="round"/>
<path d="M57.061 27.9544L44.447 24.4243L48.2478 29.9357L42.5703 40.5713L50.077 40.4801H61.2894L57.061 27.9544Z" fill="#D7504A" stroke="black" stroke-width="0.5" stroke-linecap="round" stroke-linejoin="round"/>
<path d="M17.6034 24.4243L4.98936 27.9544L0.784668 40.4801H11.9734L19.48 40.5713L13.8025 29.9357L17.6034 24.4243Z" fill="#D7504A" stroke="black" stroke-width="0.5" stroke-linecap="round" stroke-linejoin="round"/>
<path d="M34.7069 30.5279L35.5146 17.1823L39.173 7.68542H22.877L26.5352 17.1823L27.3429 30.5279L27.6517 34.7183L27.6755 45.0807H34.3745L34.3982 34.7183L34.7069 30.5279Z" fill="#D7504A" stroke="black" stroke-width="0.5" stroke-linecap="round" stroke-linejoin="round"/>
</svg>
