<svg width="60" height="68" viewBox="0 0 60 68" fill="none" xmlns="http://www.w3.org/2000/svg">
<path d="M17.2738 25.251C16.6802 23.5916 16.4034 21.8255 16.4592 20.0536C16.5149 18.2818 16.9022 16.5388 17.5988 14.9242C18.2955 13.3096 19.2878 11.8551 20.5192 10.6436C21.7507 9.43219 23.1971 8.48754 24.7758 7.86363C26.3546 7.23972 28.0348 6.94876 29.7206 7.00738C31.4063 7.066 33.0646 7.47304 34.6006 8.20526C36.1367 8.93749 37.5206 9.98055 38.6731 11.2749C39.8257 12.5693 40.7244 14.0896 41.318 15.749C41.9116 17.4084 42.1884 19.1745 42.1326 20.9464C42.0769 22.7182 41.6896 24.4612 40.993 26.0758C40.2963 27.6904 39.304 29.1449 38.0725 30.3564C36.8411 31.5678 35.3947 32.5125 33.816 33.1364C32.2372 33.7603 30.557 34.0512 28.8712 33.9926C27.1855 33.934 25.5272 33.527 23.9912 32.7947C22.4551 32.0625 21.0712 31.0194 19.9187 29.7251C18.7661 28.4307 17.8674 26.9104 17.2738 25.251L17.2738 25.251Z" stroke="white" stroke-width="4" stroke-linecap="round" stroke-linejoin="round"/>
<path d="M29.5 44.5C24.0009 44.5 18.6253 46.2101 14.053 49.4141C9.48062 52.6181 5.91692 57.172 3.8125 62.5" stroke="white" stroke-width="4" stroke-linecap="round" stroke-linejoin="round"/>
<path d="M54.9841 62.1086L39.2861 45.6086" stroke="white" stroke-width="4" stroke-linecap="round" stroke-linejoin="round"/>
<path d="M39.2861 62.1086L54.9841 45.6086" stroke="white" stroke-width="4" stroke-linecap="round" stroke-linejoin="round"/>
</svg>
