<svg width="43" height="50" viewBox="0 0 43 50" fill="none" xmlns="http://www.w3.org/2000/svg">
<path d="M11.5218 11.526C11.4804 12.8078 11.6858 14.0853 12.126 15.2857C12.5663 16.4861 13.2329 17.5859 14.0877 18.5222C14.9426 19.4585 15.969 20.213 17.1083 20.7427C18.2476 21.2724 19.4775 21.5668 20.7278 21.6092C21.9781 21.6516 23.2244 21.4412 24.3953 20.9898C25.5663 20.5385 26.6391 19.8552 27.5525 18.9788C28.4658 18.1025 29.2018 17.0503 29.7185 15.8824C30.2352 14.7144 30.5224 13.4536 30.5638 12.1718C30.6052 10.8901 30.3999 9.61255 29.9596 8.41215C29.5193 7.21175 28.8528 6.112 27.9979 5.17569C27.143 4.23938 26.1167 3.48485 24.9773 2.95518C23.838 2.4255 22.6081 2.13106 21.3578 2.08865C20.1075 2.04625 18.8613 2.25672 17.6903 2.70804C16.5193 3.15937 15.4465 3.84271 14.5332 4.71905C13.6198 5.5954 12.8838 6.64758 12.3671 7.81552C11.8504 8.98347 11.5632 10.2443 11.5218 11.526Z" stroke="white" stroke-width="4" stroke-linecap="round" stroke-linejoin="round"/>
<path d="M40.1371 47.8299C38.5762 43.9757 35.933 40.6815 32.5417 38.3638C29.1504 36.0461 25.1633 34.809 21.0846 34.809C17.006 34.809 13.0189 36.0461 9.62757 38.3638C6.23627 40.6815 3.59307 43.9757 2.03223 47.8298" stroke="white" stroke-width="4" stroke-linecap="round" stroke-linejoin="round"/>
</svg>
