<svg width="63" height="63" viewBox="0 0 63 63" fill="none" xmlns="http://www.w3.org/2000/svg">
<path d="M45.1498 57.75C52.1086 57.75 57.7497 52.1088 57.7497 45.15C57.7497 38.1912 52.1086 32.55 45.1498 32.55C38.191 32.55 32.5498 38.1912 32.5498 45.15C32.5498 52.1088 38.191 57.75 45.1498 57.75Z" stroke="white" stroke-width="4" stroke-miterlimit="10" stroke-linecap="round" stroke-linejoin="round"/>
<path d="M49.8487 45.3076H40.4512" stroke="white" stroke-width="4" stroke-miterlimit="10" stroke-linecap="round" stroke-linejoin="round"/>
<path d="M45.1494 40.7139V50.1375" stroke="white" stroke-width="4" stroke-miterlimit="10" stroke-linecap="round" stroke-linejoin="round"/>
<path d="M57.75 22.8113C57.75 27.9825 56.4113 32.5499 54.3113 36.5137C52.0013 34.0724 48.7463 32.5501 45.15 32.5501C38.1938 32.5501 32.5501 38.1938 32.5501 45.1501C32.5501 48.3788 33.7838 51.3188 35.7788 53.5501C34.8075 53.9963 33.915 54.3638 33.1275 54.6263C32.235 54.9413 30.765 54.9413 29.8725 54.6263C22.26 52.0275 5.25 41.1863 5.25 22.8113C5.25 14.7 11.7862 8.13745 19.845 8.13745C24.5962 8.13745 28.8488 10.4476 31.5 13.9913C34.1512 10.4476 38.4038 8.13745 43.155 8.13745C51.2138 8.13745 57.75 14.7 57.75 22.8113Z" stroke="#D7504A" stroke-width="4" stroke-linecap="round" stroke-linejoin="round"/>
</svg>
