<svg width="148" height="156" viewBox="0 0 148 156" fill="none" xmlns="http://www.w3.org/2000/svg">
<g clip-path="url(#clip0_104_99)">
<path d="M41.4453 63.5616C39.8339 62.2838 37.5959 62.2838 35.9845 63.5616C27.4797 70.1787 2.3682 91.764 2.50249 116.909C2.50249 137.262 18.7511 153.873 38.7597 153.873C58.7683 153.873 75.0168 137.308 75.0168 116.954C75.0616 92.1747 49.9053 70.2243 41.4453 63.5616Z" stroke="white" stroke-width="4" stroke-miterlimit="10"/>
<path d="M58.0714 149H110.286C131.714 149 146 134.333 146 112.333V75.6667C146 55.8667 133.857 41.2 116 39C114.571 39 112.429 39 110.286 39H38.8572C36.7143 39 35.2857 38.9998 33.1429 39.7332C14.5715 41.9332 2.57136 55.04 2.5 75.5C2.5 77.7 2.5 111.8 2.5 114" stroke="white" stroke-width="4" stroke-linecap="round" stroke-linejoin="round"/>
<path d="M117 38.2817C115.552 38.2817 113.379 38.2817 111.207 38.2817H38.7931C36.6207 38.2817 35.1724 38.2815 33 39C33.7241 36.8446 35.1725 35.4078 37.3449 33.2525L60.5172 9.54372C70.6552 -0.514575 86.5862 -0.514575 96.7241 9.54372L109.759 22.4757C114.103 26.7864 116.276 32.5341 117 38.2817Z" stroke="white" stroke-width="4" stroke-linecap="round" stroke-linejoin="round"/>
<path d="M146 79H123.8C115.66 79 109 85.525 109 93.5C109 101.475 115.66 108 123.8 108H146" stroke="white" stroke-width="4" stroke-linecap="round" stroke-linejoin="round"/>
</g>
<defs>
<clipPath id="clip0_104_99">
<rect width="148" height="156" fill="white"/>
</clipPath>
</defs>
</svg>
