<svg width="140" height="139" fill="none" xmlns="http://www.w3.org/2000/svg"><g clip-path="url(#a)" stroke="#fff" stroke-width="4"><path d="M72.2243 28.1297c-1.51-1.1794-3.6071-1.1794-5.1171 0-7.9694 6.1078-31.5001 26.0317-31.3743 49.2412 0 18.7866 15.2258 34.1191 33.9748 34.1191 18.749 0 33.9743-15.2903 33.9743-34.077.042-22.8725-23.5303-43.1334-31.4577-49.2833Z" stroke-miterlimit="10"/><path d="M117.273 83.0701h-13.59m13.589-27.4051H98.0195m-55.4919 60.9h54.36c13.5904 0 20.3854-6.743 20.3854-20.2276v-53.94c0-13.485-6.795-20.2275-20.3854-20.2275h-54.36c-13.59 0-20.385 6.7425-20.385 20.2275v53.94c0 13.4846 6.795 20.2276 20.385 20.2276Z" stroke-linecap="round" stroke-linejoin="round"/><path d="M49.3228 136.865h40.77c33.9752 0 47.5652-13.499 47.5652-47.2481V49.1184c0-33.7488-13.59-47.24828-47.5652-47.24828h-40.77c-33.975 0-47.56499 13.49948-47.56499 47.24828v40.4985c0 33.7491 13.58999 47.2481 47.56499 47.2481Z" stroke-linecap="round" stroke-linejoin="round"/></g><defs><clipPath id="a"><path fill="#fff" d="M0 0h140v139H0z"/></clipPath></defs></svg>