<svg width="61" height="61" viewBox="0 0 61 61" fill="none" xmlns="http://www.w3.org/2000/svg">
<path d="M55.9167 38.125C55.9167 47.9613 47.9613 55.9167 38.125 55.9167L40.7938 51.4688" stroke="white" stroke-width="4" stroke-linecap="round" stroke-linejoin="round"/>
<path d="M5.08301 22.8749C5.08301 13.0387 13.0384 5.08325 22.8747 5.08325L20.2059 9.53117" stroke="white" stroke-width="4" stroke-linecap="round" stroke-linejoin="round"/>
<path d="M34.8213 11.3103L44.9371 17.1561L54.9513 11.3357" stroke="#D7504A" stroke-width="4" stroke-linecap="round" stroke-linejoin="round"/>
<path d="M44.9375 27.5008V17.1307" stroke="#D7504A" stroke-width="4" stroke-linecap="round" stroke-linejoin="round"/>
<path d="M42.5479 5.617L36.4479 8.99731C35.0754 9.75981 33.9316 11.6915 33.9316 13.2673V19.7232C33.9316 21.2991 35.0499 23.2307 36.4479 23.9932L42.5479 27.3737C43.8441 28.1107 45.9791 28.1107 47.3008 27.3737L53.4008 23.9932C54.7733 23.2307 55.917 21.2991 55.917 19.7232V13.2673C55.917 11.6915 54.7987 9.75981 53.4008 8.99731L47.3008 5.617C46.0045 4.90534 43.8696 4.90534 42.5479 5.617Z" stroke="#D7504A" stroke-width="4" stroke-linecap="round" stroke-linejoin="round"/>
<path d="M5.97266 39.2686L16.0631 45.1144L26.1027 39.294" stroke="#D7504A" stroke-width="4" stroke-linecap="round" stroke-linejoin="round"/>
<path d="M16.0635 55.4592V45.0891" stroke="#D7504A" stroke-width="4" stroke-linecap="round" stroke-linejoin="round"/>
<path d="M13.6993 33.5755L7.59927 36.9558C6.22677 37.7183 5.08301 39.65 5.08301 41.2258V47.6817C5.08301 49.2575 6.20136 51.1892 7.59927 51.9517L13.6993 55.3322C14.9955 56.0692 17.1305 56.0692 18.4522 55.3322L24.5522 51.9517C25.9247 51.1892 27.0684 49.2575 27.0684 47.6817V41.2258C27.0684 39.65 25.9501 37.7183 24.5522 36.9558L18.4522 33.5755C17.1305 32.8638 14.9955 32.8638 13.6993 33.5755Z" stroke="#D7504A" stroke-width="4" stroke-linecap="round" stroke-linejoin="round"/>
</svg>
