<svg width="24" height="24" viewBox="0 0 24 24" fill="none" xmlns="http://www.w3.org/2000/svg">
<g clip-path="url(#clip0_103_23)">
<path d="M0.439127 21.4401C0.157865 21.7215 -9.37008e-05 22.1031 7.33302e-08 22.5009C9.38474e-05 22.8988 0.158232 23.2803 0.439627 23.5616C0.721022 23.8429 1.10262 24.0008 1.50048 24.0007C1.89834 24.0006 2.27987 23.8425 2.56113 23.5611L11.8231 14.3001C11.8463 14.2768 11.8739 14.2583 11.9043 14.2457C11.9347 14.2331 11.9672 14.2266 12.0001 14.2266C12.033 14.2266 12.0656 14.2331 12.0959 14.2457C12.1263 14.2583 12.1539 14.2768 12.1771 14.3001L21.4391 23.5631C21.5784 23.7024 21.7437 23.813 21.9257 23.8884C22.1077 23.9638 22.3028 24.0027 22.4998 24.0027C22.6968 24.0028 22.8919 23.964 23.0739 23.8887C23.2559 23.8133 23.4213 23.7029 23.5606 23.5636C23.7 23.4243 23.8105 23.259 23.8859 23.077C23.9614 22.895 24.0002 22.6999 24.0003 22.5029C24.0003 22.3059 23.9615 22.1109 23.8862 21.9288C23.8109 21.7468 23.7004 21.5814 23.5611 21.4421L14.3001 12.1771C14.2768 12.1539 14.2584 12.1263 14.2458 12.0959C14.2332 12.0655 14.2267 12.033 14.2267 12.0001C14.2267 11.9672 14.2332 11.9346 14.2458 11.9043C14.2584 11.8739 14.2768 11.8463 14.3001 11.8231L23.5631 2.56109C23.8444 2.27943 24.0022 1.89758 24.002 1.49953C24.0017 1.10148 23.8433 0.719852 23.5616 0.43859C23.28 0.157328 22.8981 -0.000525065 22.5001 -0.000243765C22.102 3.75341e-05 21.7204 0.15843 21.4391 0.44009L12.1771 9.70009C12.1539 9.72337 12.1263 9.74184 12.0959 9.75445C12.0656 9.76705 12.033 9.77354 12.0001 9.77354C11.9672 9.77354 11.9347 9.76705 11.9043 9.75445C11.8739 9.74184 11.8463 9.72337 11.8231 9.70009L2.56113 0.44009C2.42186 0.300758 2.25651 0.19022 2.07453 0.114789C1.89254 0.0393576 1.69748 0.000509743 1.50048 0.000463314C1.10262 0.000369546 0.721022 0.158328 0.439627 0.43959C0.158232 0.720852 9.38099e-05 1.10238 4.17235e-08 1.50024C-9.37265e-05 1.8981 0.157865 2.2797 0.439127 2.56109L9.70013 11.8231C9.72341 11.8463 9.74188 11.8739 9.75448 11.9043C9.76709 11.9346 9.77357 11.9672 9.77357 12.0001C9.77357 12.033 9.76709 12.0655 9.75448 12.0959C9.74188 12.1263 9.72341 12.1539 9.70013 12.1771L0.439127 21.4401Z" fill="white"/>
</g>
<defs>
<clipPath id="clip0_103_23">
<rect width="24" height="24" fill="white"/>
</clipPath>
</defs>
</svg>
