<svg width="837" height="742" viewBox="0 0 837 742" fill="none" xmlns="http://www.w3.org/2000/svg">
<path d="M469 474.21V552.491L455.878 547.234V543.729L465.421 547.234V475.962L417.407 448.797L316.307 506.34V554.244L208.945 615V568.849L169.281 592.216L166 590.172L212.524 563.007V609.158L312.728 552.491V504.003L417.407 445L469 474.21Z" fill="white"/>
<rect x="380" y="490" width="77" height="75" fill="black"/>
<path d="M457 527.5C457 548.211 439.763 565 418.5 565C397.237 565 380 548.211 380 527.5C380 506.789 397.237 490 418.5 490C439.763 490 457 506.789 457 527.5Z" fill="#F9D44E"/>
<path d="M367 584.321V505.374L380.114 510.717V514.872L370.576 510.717V582.54L417.965 609.845L519.596 551.08V503L626.294 564.733V607.471L667.125 583.727L671 585.805L622.718 613.406V566.81L523.173 508.936V552.861L417.965 614L367 584.321Z" fill="white"/>
<path d="M485 96L514.5 137.5L485 180.5L455.5 138.5L485 96Z" fill="#2C6957"/>
<path d="M419 216L464 273L419 399L374 272.75L419 216Z" fill="#1E3E69"/>
<path d="M108.5 621L212 681L108.5 741L4 681L108.5 621Z" fill="#DB416E"/>
<path d="M521 621L624 681L520.5 741L417 681L521 621Z" fill="#DB416E"/>
<path d="M315 621L417 681L315 741L212 681L315 621Z" fill="#DB416E"/>
<path d="M729 621L833 681L729 741L624 681L729 621Z" fill="#DB416E"/>
<path d="M217 625.262L312 572V617.161L217 671V625.262Z" fill="#62102C"/>
<path d="M423 625L518 572V617L423 671V625Z" fill="#62102C"/>
<path d="M621 625L526 572V617.172L621 671V625Z" fill="#62102C"/>
<path d="M414 625.244L319 572V617.212L414 671V625.244Z" fill="#62102C"/>
<path d="M158 594L209 624V671L118 617.5L158 594Z" fill="#62102C"/>
<path d="M679 594L628 624V671L719 617.5L679 594Z" fill="#62102C"/>
<path d="M517 142L436 437L836 672L517 142Z" fill="#69D4E1"/>
<path d="M320.5 143L401 437.5L1 672L320.5 143Z" fill="#69D4E1"/>
<path d="M419 1L485 96L419 191L353 96L419 1Z" fill="#6DE7B5"/>
<path d="M353 96L382.5 138.5L353 180L324 137.25L353 96Z" fill="#2C6957"/>
</svg>
