<svg width="23" height="18" viewBox="0 0 23 18" fill="none" xmlns="http://www.w3.org/2000/svg">
<g clip-path="url(#clip0_101_3)">
<path d="M12.8301 3.56168V17.7144H14.934V4.41257L17.3268 2.07627H22.9564V0.0219727H16.4541L12.8301 3.56168Z" fill="#F8F8F8"/>
<path d="M16.8408 5.51992V17.7144H18.9448V5.99399H22.956V3.93848H18.4605L16.8408 5.51992Z" fill="#F8F8F8"/>
<path d="M0.794922 1.98022V4.03451H6.42577L8.8173 6.37082V17.7132H10.9225V5.51993L7.29723 1.98022H0.794922Z" fill="#F8F8F8"/>
<path d="M0.794922 5.89673V7.95224H4.79615V17.7131H6.9113V7.47818L5.29164 5.89673H0.794922Z" fill="#F8F8F8"/>
<path d="M21.9045 7.8562C21.3231 7.8562 20.8525 8.31568 20.8525 8.88335C20.8525 9.45102 21.3231 9.9105 21.9045 9.9105C22.4859 9.9105 22.9565 9.45102 22.9565 8.88335C22.9565 8.31568 22.4859 7.8562 21.9045 7.8562Z" fill="#F8F8F8"/>
</g>
<defs>
<clipPath id="clip0_101_3">
<rect width="23" height="18" fill="white"/>
</clipPath>
</defs>
</svg>
