<svg width="402" height="402" viewBox="0 0 402 402" fill="none" xmlns="http://www.w3.org/2000/svg">
<path fill-rule="evenodd" clip-rule="evenodd" d="M197.491 63.0377C201.09 62.7757 204.19 63.879 206.796 66.348C207.542 67.2127 208.286 68.0777 209.032 68.9425C219.232 86.9551 229.431 104.968 239.63 122.98C244.284 133.908 243.985 144.704 238.735 155.367C216.369 194.136 194.002 232.904 171.635 271.673C165.349 281.527 156.373 287.164 144.706 288.583C124.308 288.703 103.909 288.703 83.5109 288.583C75.4847 287.346 72.0551 282.724 73.2223 274.715C73.7498 272.765 74.5251 270.917 75.5484 269.168C113.005 203.201 150.461 137.235 187.918 71.2686C190.053 67.2517 193.244 64.5082 197.491 63.0377Z" fill="white"/>
<path fill-rule="evenodd" clip-rule="evenodd" d="M274.761 201.015C278.204 200.855 281.136 201.99 283.56 204.418C284.141 205.11 284.722 205.801 285.303 206.493C298.254 228.853 311.038 251.323 323.654 273.898C325.142 277.416 325.087 280.903 323.488 284.358C322.05 286.476 320.086 287.887 317.594 288.591C316.449 288.902 315.287 289.123 314.108 289.255C288.32 289.367 262.53 289.367 236.742 289.255C228.514 287.66 225.499 282.817 227.693 274.728C228.225 273.279 228.889 271.896 229.686 270.578C241.903 249.631 254.078 228.657 266.211 207.656C268.226 204.337 271.077 202.122 274.761 201.015Z" fill="white"/>
<path d="M394.5 201C394.5 307.867 307.867 394.5 201 394.5C94.1329 394.5 7.5 307.867 7.5 201C7.5 94.1329 94.1329 7.5 201 7.5C307.867 7.5 394.5 94.1329 394.5 201Z" stroke="white" stroke-width="10"/>
</svg>
