<svg width="50" height="50" viewBox="0 0 50 50" fill="none" xmlns="http://www.w3.org/2000/svg">
<path fill-rule="evenodd" clip-rule="evenodd" d="M2.0835 0H11.43L14.0806 3.92575L36.5214 3.95015L39.2155 0H48.3842V16.9953H2.0835V0ZM3.33962 1.25612V15.7393H47.1281V1.25612H39.8792L37.1846 5.20699L13.4126 5.18115L10.7625 1.25612H3.33962Z" fill="#F8F8F8"/>
<path fill-rule="evenodd" clip-rule="evenodd" d="M2.0835 15.7393H48.3842V17.0549L43.9887 24.7771H6.32053L2.0835 17.0048V15.7393ZM46.9727 16.9954H3.50905L7.06641 23.5209H43.2583L46.9727 16.9954Z" fill="#F8F8F8"/>
<path fill-rule="evenodd" clip-rule="evenodd" d="M2.71143 8.84326C6.86434 8.84326 10.2356 12.2145 10.2356 16.3674H8.97949C8.97949 12.9083 6.1706 10.0994 2.71143 10.0994V8.84326Z" fill="#F8F8F8"/>
<path fill-rule="evenodd" clip-rule="evenodd" d="M47.7561 10.0994C44.2968 10.0994 41.488 12.9083 41.488 16.3674H40.2319C40.2319 12.2145 43.6032 8.84326 47.7561 8.84326V10.0994Z" fill="#F8F8F8"/>
<path fill-rule="evenodd" clip-rule="evenodd" d="M25.3151 17.2488L29.2782 20.5178V49.9999H21.3521V20.5178L25.3151 17.2488ZM22.6081 21.11V48.7438H28.0221V21.11L25.3151 18.8771L22.6081 21.11Z" fill="#F8F8F8"/>
<path fill-rule="evenodd" clip-rule="evenodd" d="M16.8994 16.5837L22.6085 22.1962V32.8306L16.8994 27.2262V16.5837ZM18.1555 19.5801V26.6992L21.3523 29.8374V22.7228L18.1555 19.5801Z" fill="#F8F8F8"/>
<path fill-rule="evenodd" clip-rule="evenodd" d="M33.7315 16.5837V27.2262L28.0225 32.8307V22.1962L33.7315 16.5837ZM29.2785 22.7228V29.8374L32.4754 26.6992V19.5801L29.2785 22.7228Z" fill="#F8F8F8"/>
<path fill-rule="evenodd" clip-rule="evenodd" d="M20.8311 0H29.8061V13.9635L25.315 18.4765L20.8311 13.9632V0ZM22.0872 1.25612V13.4453L25.3157 16.695L28.5499 13.445V1.25612H22.0872Z" fill="#F8F8F8"/>
<path fill-rule="evenodd" clip-rule="evenodd" d="M25.2286 9.479L33.9966 18.0581L29.2165 22.8382L25.3225 18.9568L21.4405 22.8388L16.665 18.0635L25.2286 9.479ZM25.2393 11.2469L18.4404 18.0624L21.4405 21.0625L25.3211 17.1818L29.2151 21.0632L32.2105 18.0678L25.2393 11.2469Z" fill="#F8F8F8"/>
<path fill-rule="evenodd" clip-rule="evenodd" d="M6.58398 0H14.749L15.8107 1.49512L22.0504 1.50173L22.0302 14.423L18.124 18.3355V24.7771H12.6222V16.0996L15.7562 13.0911V8.21505H11.8778L6.58398 0ZM8.88778 1.25612L12.5627 6.95893H17.0124V13.6266L13.8783 16.635V23.5209H16.8679V17.8157L20.7749 13.9025L20.7923 2.75653L15.1616 2.75057L14.1004 1.25612H8.88778Z" fill="#F8F8F8"/>
<path fill-rule="evenodd" clip-rule="evenodd" d="M35.8504 0H44.0091L38.7154 8.21505H34.8375L34.8429 13.0912L37.9709 16.1V24.7771H32.4691V18.3355L28.5629 14.4229L28.5493 1.50173L34.7887 1.49512L35.8504 0ZM36.499 1.25612L35.4378 2.75057L29.8068 2.75653L29.8184 13.9027L33.7253 17.8157V23.5209H36.7148V16.6346L33.5873 13.6265L33.58 6.95893H38.0305L41.7054 1.25612H36.499Z" fill="#F8F8F8"/>
</svg>
