<svg width="50" height="50" viewBox="0 0 50 50" fill="none" xmlns="http://www.w3.org/2000/svg">
<path fill-rule="evenodd" clip-rule="evenodd" d="M24.9108 13.9507L33.6366 29.9218L38.295 33.4058V38.7569L24.9111 46.3991L11.5542 38.7904V33.4241L16.1842 29.9232L24.9108 13.9507ZM24.9108 16.2539L17.0395 30.6609L12.6585 33.9736V38.1486L24.9104 45.1278L37.1907 38.1158V33.9588L32.7827 30.6622L24.9108 16.2539Z" fill="#F8F8F8"/>
<path fill-rule="evenodd" clip-rule="evenodd" d="M24.917 0L28.048 4.84609L28.625 9.15373L29.3097 21.9987L33.7123 30.0739V35.773L24.9166 40.8631L16.1152 35.7731V30.0752L20.5014 21.9445L21.2025 9.15331L21.7795 4.84581L24.917 0ZM22.8412 5.23801L22.3028 9.257L21.5905 22.2515L17.2195 30.3541V35.136L24.9165 39.5873L32.608 35.1361V30.3554L28.2203 22.3076L27.5247 9.25659L26.9863 5.23773L24.9161 2.03341L22.8412 5.23801Z" fill="#F8F8F8"/>
<path fill-rule="evenodd" clip-rule="evenodd" d="M24.917 23.1833L28.7486 30.7174V47.723L24.9168 50.0001L21.0791 47.7232V30.7172L24.917 23.1833ZM22.1835 30.9822V47.0944L24.9164 48.7157L27.6443 47.0947V30.9821L24.9162 25.6178L22.1835 30.9822Z" fill="#F8F8F8"/>
<path fill-rule="evenodd" clip-rule="evenodd" d="M32.6079 18.5435L38.2951 22.6203V28.3101L42.5356 31.5016V41.2843L33.4196 46.7124V40.2851L37.1687 38.1484V33.9748L32.6079 30.5569V18.5435ZM33.7122 20.6938V30.0045L38.273 33.4223V38.79L34.5238 40.9269V44.7696L41.4313 40.6566V32.0525L37.1908 28.8611V23.1875L33.7122 20.6938Z" fill="#F8F8F8"/>
<path fill-rule="evenodd" clip-rule="evenodd" d="M17.2192 18.5435V30.5569L12.6585 33.9748V38.1484L16.4075 40.2851V46.7124L7.2915 41.2843V31.5016L11.532 28.3101V22.6203L17.2192 18.5435ZM12.6364 23.1875V28.8611L8.39582 32.0525V40.6566L15.3033 44.7696V40.9269L11.5541 38.79V33.4223L16.1149 30.0045V20.6938L12.6364 23.1875Z" fill="#F8F8F8"/>
</svg>
