<svg width="211" height="169" viewBox="0 0 211 169" fill="none" xmlns="http://www.w3.org/2000/svg">
<g clip-path="url(#clip0_101_3)">
<path d="M114.186 33.9184V168.7H134.222V42.0217L157.009 19.7723H210.622V0.208496H148.698L114.186 33.9184Z" fill="#F8F8F8"/>
<path d="M152.381 52.5675V168.7H172.419V57.0822H210.619V37.5068H167.806L152.381 52.5675Z" fill="#F8F8F8"/>
<path d="M-0.429688 18.8577V38.4214H53.1949L75.9703 60.6709V168.688H96.0189V52.5676L61.4942 18.8577H-0.429688Z" fill="#F8F8F8"/>
<path d="M-0.429688 56.1562V75.7316H37.6755V168.688H57.8188V71.217L42.3942 56.1562H-0.429688Z" fill="#F8F8F8"/>
<path d="M200.605 74.8171C195.068 74.8171 190.586 79.1929 190.586 84.5991C190.586 90.0052 195.068 94.381 200.605 94.381C206.141 94.381 210.623 90.0052 210.623 84.5991C210.623 79.1929 206.141 74.8171 200.605 74.8171Z" fill="#F8F8F8"/>
</g>
<defs>
<clipPath id="clip0_101_3">
<rect width="211" height="169" fill="white"/>
</clipPath>
</defs>
</svg>
