<svg xmlns="http://www.w3.org/2000/svg" width="107" height="18" viewBox="0 0 107 18" fill="none"><script xmlns="" type="text/javascript"/>
<path d="M12.8301 3.56159V17.7143H14.934V4.41248L17.3268 2.07618H22.9564V0.0218811H16.4541L12.8301 3.56159Z" fill="#F8F8F8"/>
<path d="M16.8408 5.51985V17.7143H18.9448V5.99392H22.956V3.93841H18.4605L16.8408 5.51985Z" fill="#F8F8F8"/>
<path d="M0.794922 1.98015V4.03444H6.42577L8.8173 6.37075V17.7131H10.9225V5.51986L7.29723 1.98015H0.794922Z" fill="#F8F8F8"/>
<path d="M0.794922 5.89668V7.95219H4.79615V17.7131H6.9113V7.47813L5.29164 5.89668H0.794922Z" fill="#F8F8F8"/>
<path d="M21.9045 7.85616C21.3231 7.85616 20.8525 8.31564 20.8525 8.88331C20.8525 9.45098 21.3231 9.91046 21.9045 9.91046C22.4859 9.91046 22.9565 9.45098 22.9565 8.88331C22.9565 8.31564 22.4859 7.85616 21.9045 7.85616Z" fill="#F8F8F8"/>
</svg>