<svg width="402" height="402" viewBox="0 0 402 402" fill="none" xmlns="http://www.w3.org/2000/svg">
<path fill-rule="evenodd" clip-rule="evenodd" d="M198.5 51.3C202.522 51.0072 205.988 52.2404 208.9 55C209.734 55.9666 210.566 56.9334 211.4 57.9C222.8 78.0334 234.2 98.1666 245.6 118.3C250.802 130.514 250.468 142.581 244.6 154.5C219.6 197.833 194.6 241.166 169.6 284.5C162.574 295.514 152.541 301.814 139.5 303.4C116.7 303.534 93.9 303.534 71.1 303.4C62.1288 302.018 58.2954 296.852 59.6 287.9C60.1896 285.72 61.0562 283.654 62.2 281.7C104.067 207.966 145.933 134.233 187.8 60.5C190.186 56.0102 193.753 52.9436 198.5 51.3Z" fill="white"/>
<path fill-rule="evenodd" clip-rule="evenodd" d="M282.3 197.1C286.448 196.908 289.98 198.275 292.9 201.2C293.6 202.034 294.3 202.866 295 203.7C310.602 230.636 326.002 257.704 341.2 284.9C342.992 289.138 342.926 293.338 341 297.5C339.268 300.052 336.902 301.752 333.9 302.6C332.52 302.974 331.12 303.24 329.7 303.4C298.634 303.534 267.566 303.534 236.5 303.4C226.588 301.478 222.956 295.644 225.6 285.9C226.24 284.154 227.04 282.488 228 280.9C242.718 255.666 257.384 230.4 272 205.1C274.428 201.102 277.862 198.434 282.3 197.1Z" fill="white"/>
<circle cx="201" cy="201" r="198.5" stroke="white" stroke-width="3"/>
</svg>
