<svg width="910" height="856" fill="none" xmlns="http://www.w3.org/2000/svg">
<path d="M144.599 671 248 731l-103.7 60L40 731l104.599-60ZM351.091 671 453 731l-102.205 60L248 731l103.091-60ZM557.097 671 660 731l-103.202 60L453 731l104.097-60ZM765.102 671 869 731l-104.199 60L660 731l105.102-60Z" fill="#D7504A"/>
<path d="M715.02 644 664 673.845V721l91-53.422L715.02 644ZM657 675.263 562 622v45.158L657 721v-45.737ZM459 675.263 554 622v45.158L459 721v-45.737ZM450 675.263 355 622v45.158L450 721v-45.737ZM253 675.263 348 622v45.158L253 721v-45.737ZM193.98 644 245 673.845V721l-91-53.422L193.98 644Z" fill="#fff"/>
<path d="M505 524.21v78.281l-13.122-5.257v-3.505l9.543 3.505v-71.272l-48.014-27.165-101.1 57.543v47.904L244.945 665v-46.151l-39.664 23.367-3.281-2.044 46.524-27.165v46.151l100.204-56.667v-48.488L453.407 495 505 524.21Z" fill="#fff"/>
<path d="M403 634.321v-78.947l13.114 5.343v4.155l-9.538-4.155v71.823l47.389 27.305 101.631-58.765V553l106.698 61.733v42.738l40.831-23.744 3.875 2.078-48.282 27.601V616.81l-99.545-57.874v43.925L453.965 664 403 634.321Z" fill="#fff"/>
<g clip-path="url(#a)" fill-rule="evenodd" clip-rule="evenodd">
<path opacity=".999" d="M452.52 533.978h3.916c11.286.654 21.002 4.812 29.147 12.474 8.239 8.157 12.704 18.021 13.395 29.59v3.872c-.662 11.16-4.867 20.767-12.616 28.82-8.25 8.147-18.226 12.561-29.926 13.244h-3.916c-11.287-.654-21.003-4.812-29.148-12.474-8.23-8.144-12.695-17.993-13.394-29.546v-3.96c.699-11.553 5.164-21.402 13.394-29.546 8.145-7.662 17.861-11.82 29.148-12.474Z" fill="#D7504A"/>
<path d="M453.944 545.066c.895-.064 1.666.207 2.314.814.185.213.371.425.556.638 2.537 4.429 5.073 8.859 7.61 13.288 1.157 2.687 1.083 5.342-.223 7.964-5.562 9.533-11.125 19.067-16.687 28.6-1.564 2.423-3.796 3.809-6.698 4.158-5.073.03-10.146.03-15.219 0-1.996-.304-2.849-1.441-2.558-3.41.131-.48.324-.934.578-1.364 9.315-16.221 18.631-32.443 27.946-48.664.531-.988 1.325-1.662 2.381-2.024ZM472.59 577.142c.923-.042 1.709.258 2.358.902.156.183.312.366.467.55 3.472 5.926 6.898 11.881 10.28 17.864.399.932.384 1.856-.045 2.772-.385.561-.911.935-1.579 1.122-.307.082-.619.141-.935.176-6.912.029-13.825.029-20.737 0-2.205-.423-3.013-1.706-2.425-3.85.142-.384.32-.751.534-1.1 3.275-5.552 6.538-11.11 9.79-16.676.54-.88 1.304-1.466 2.292-1.76Z" fill="#fff"/>
</g>
<path d="M356.345 193 437 487.313 37 722l319.345-529ZM455 266l45 56.803L455 449l-45-126.197L455 266ZM552.892 192 472 487.164 872 722 552.892 192Z" fill="#D7504A"/>
<path d="m389 146 29.5 42.5L389 230l-29-42.75L389 146ZM521 146l29 41.25L521 230l-29.5-41.5L521 146Z" fill="#fff"/>
<path d="m455 51 66 95-66 95-66-95 66-95Z" fill="#D7504A"/>
<defs>
<clipPath id="a">
<path fill="#fff" transform="translate(410 534)" d="M0 0h89v88H0z"/>
</clipPath>
</defs>
</svg>