<svg width="742" height="437" viewBox="0 0 742 437" fill="none" xmlns="http://www.w3.org/2000/svg">
<path d="M8 434H739" stroke="#D7504A" stroke-width="4" stroke-linecap="round"/>
<path d="M8.5 434C42.5 412.5 57.5 398.5 81 369" stroke="#D7504A" stroke-width="4" stroke-linecap="round"/>
<path d="M99.5 341H738.5" stroke="#D7504A" stroke-width="4" stroke-linecap="round"/>
<path d="M99.5 341C114 316 117 303 124 278.5" stroke="#D7504A" stroke-width="4" stroke-linecap="round"/>
<path d="M129.5 250H738.5" stroke="#D7504A" stroke-width="4" stroke-linecap="round"/>
<path d="M128.5 186.5C132 211 131.5 224.5 129.5 250" stroke="#D7504A" stroke-width="4" stroke-linecap="round"/>
<path d="M123.5 158H738.5" stroke="#D7504A" stroke-width="4" stroke-linecap="round"/>
<path d="M97.5 95C114 126.5 113.5 127.5 123.5 158" stroke="#D7504A" stroke-width="4" stroke-linecap="round"/>
<path d="M79.5 68L738.5 69" stroke="#D7504A" stroke-width="4" stroke-linecap="round"/>
<path d="M3 3C40.5 24.5 52.5 38 79.5 68" stroke="#D7504A" stroke-width="4" stroke-linecap="round"/>
<path d="M466 63V48" stroke="white" stroke-width="4" stroke-linecap="round"/>
<path d="M474 63V42" stroke="white" stroke-width="4" stroke-linecap="round"/>
<path d="M482 35V63" stroke="white" stroke-width="4" stroke-linecap="round"/>
<path d="M490 63V29" stroke="white" stroke-width="4" stroke-linecap="round"/>
<path d="M458 63V53" stroke="white" stroke-width="4" stroke-linecap="round"/>
<path d="M498 63V24" stroke="white" stroke-width="4" stroke-linecap="round"/>
<path d="M466 429V414" stroke="white" stroke-width="4" stroke-linecap="round"/>
<path d="M474 429V408" stroke="white" stroke-width="4" stroke-linecap="round"/>
<path d="M482 401V429" stroke="white" stroke-width="4" stroke-linecap="round"/>
<path d="M490 429V395" stroke="white" stroke-width="4" stroke-linecap="round"/>
<path d="M458 429V419" stroke="white" stroke-width="4" stroke-linecap="round"/>
<path d="M498 429V390" stroke="white" stroke-width="4" stroke-linecap="round"/>
<path d="M484 336V321" stroke="white" stroke-width="4" stroke-linecap="round"/>
<path d="M492 336V315" stroke="white" stroke-width="4" stroke-linecap="round"/>
<path d="M500 308V336" stroke="white" stroke-width="4" stroke-linecap="round"/>
<path d="M508 336V302" stroke="white" stroke-width="4" stroke-linecap="round"/>
<path d="M476 336V326" stroke="white" stroke-width="4" stroke-linecap="round"/>
<path d="M516 336V297" stroke="white" stroke-width="4" stroke-linecap="round"/>
<path d="M502 245V230" stroke="white" stroke-width="4" stroke-linecap="round"/>
<path d="M510 245V224" stroke="white" stroke-width="4" stroke-linecap="round"/>
<path d="M518 217V245" stroke="white" stroke-width="4" stroke-linecap="round"/>
<path d="M526 245V211" stroke="white" stroke-width="4" stroke-linecap="round"/>
<path d="M494 245V235" stroke="white" stroke-width="4" stroke-linecap="round"/>
<path d="M534 245V206" stroke="white" stroke-width="4" stroke-linecap="round"/>
<path d="M484 152V137" stroke="white" stroke-width="4" stroke-linecap="round"/>
<path d="M492 152V131" stroke="white" stroke-width="4" stroke-linecap="round"/>
<path d="M500 124V152" stroke="white" stroke-width="4" stroke-linecap="round"/>
<path d="M508 152V118" stroke="white" stroke-width="4" stroke-linecap="round"/>
<path d="M476 152V142" stroke="white" stroke-width="4" stroke-linecap="round"/>
<path d="M516 152V113" stroke="white" stroke-width="4" stroke-linecap="round"/>
</svg>
