<svg width="50" height="50" viewBox="0 0 48 48" fill="none" xmlns="http://www.w3.org/2000/svg"><path d="M35.3787 4.39552L13.1966 4.3714L10.6521 0.603027H2.60291V15.7127H45.8457V0.603027H37.9653L35.3787 4.39552Z" fill="#1A1A1A"></path><path fill-rule="evenodd" clip-rule="evenodd" d="M2 0H10.9726L13.5172 3.76872L35.0604 3.79214L37.6467 0H46.4487V16.3155H2V0ZM3.20588 1.20588V15.1097H45.2428V1.20588H38.2839L35.6971 4.99871L12.8759 4.9739L10.3318 1.20588H3.20588Z" fill="#F8F8F8"></path><path d="M41.8784 23.1831H6.42554L2.60291 16.1709V15.7126H45.8457V16.2131L41.8784 23.1831Z" fill="#1A1A1A"></path><path fill-rule="evenodd" clip-rule="evenodd" d="M2 15.1096H46.4487V16.3726L42.229 23.7859H6.06755L2 16.3245V15.1096ZM45.0936 16.3155H3.36853L6.7836 22.58H41.5278L45.0936 16.3155Z" fill="#F8F8F8"></path><path fill-rule="evenodd" clip-rule="evenodd" d="M2.60291 8.4895C6.58971 8.4895 9.82612 11.7259 9.82612 15.7127H8.62025C8.62025 12.3919 5.92372 9.69538 2.60291 9.69538V8.4895Z" fill="#F8F8F8"></path><path fill-rule="evenodd" clip-rule="evenodd" d="M45.8458 9.69538C42.5249 9.69538 39.8284 12.3919 39.8284 15.7127H38.6226C38.6226 11.7259 41.859 8.4895 45.8458 8.4895V9.69538Z" fill="#F8F8F8"></path><path d="M21.1012 19.9814V47.3971H27.5044V19.9814L24.3028 17.3406L21.1012 19.9814Z" fill="#1A1A1A"></path><path fill-rule="evenodd" clip-rule="evenodd" d="M24.3027 16.5588L28.1073 19.6971V47.9999H20.4982V19.6971L24.3027 16.5588ZM21.704 20.2656V46.794H26.9014V20.2656L24.3027 18.122L21.704 20.2656Z" fill="#F8F8F8"></path><path d="M16.8263 25.8842L21.1012 30.0807V21.5611L16.8263 17.3586V25.8842Z" fill="#1A1A1A"></path><path fill-rule="evenodd" clip-rule="evenodd" d="M16.2233 15.9204L21.704 21.3084V31.5174L16.2233 26.1372V15.9204ZM17.4291 18.7969V25.6312L20.4981 28.6439V21.8139L17.4291 18.7969Z" fill="#F8F8F8"></path><path d="M31.7792 25.8842L27.5044 30.0807V21.5611L31.7792 17.3586V25.8842Z" fill="#1A1A1A"></path><path fill-rule="evenodd" clip-rule="evenodd" d="M32.3821 15.9204V26.1372L26.9014 31.5175V21.3084L32.3821 15.9204ZM28.1072 21.8139V28.6439L31.1762 25.6312V18.7969L28.1072 21.8139Z" fill="#F8F8F8"></path><path d="M20.6007 13.1562L24.3028 16.8824L28.0108 13.1562V0.603027H20.6007V13.1562Z" fill="#1A1A1A"></path><path fill-rule="evenodd" clip-rule="evenodd" d="M19.9977 0H28.6137V13.405L24.3023 17.7374L19.9977 13.4047V0ZM21.2036 1.20588V12.9075L24.303 16.0272L27.4078 12.9072V1.20588H21.2036Z" fill="#F8F8F8"></path><path d="M31.7791 17.3405L24.2243 9.94849L16.8503 17.3405L20.5825 21.0727L24.3087 17.3466L28.0469 21.0727L31.7791 17.3405Z" fill="#1A1A1A"></path><path fill-rule="evenodd" clip-rule="evenodd" d="M24.2193 9.09985L32.6366 17.3358L28.0477 21.9247L24.3095 18.1985L20.5827 21.9253L15.9983 17.341L24.2193 9.09985ZM24.2296 10.797L17.7026 17.3399L20.5827 20.22L24.3081 16.4945L28.0464 20.2207L30.9219 17.3451L24.2296 10.797Z" fill="#F8F8F8"></path><path d="M11.7315 7.28359H15.729V12.8246L12.7203 15.7127V23.1831H16.7962V17.3527L20.5465 13.5964L20.5646 2.04405L14.8668 2.03802L13.8478 0.603027H7.42651L11.7315 7.28359Z" fill="#1A1A1A"></path><path fill-rule="evenodd" clip-rule="evenodd" d="M6.32056 0H14.159L15.1782 1.43532L21.1683 1.44166L21.1489 13.8461L17.399 17.6021V23.786H12.1172V15.4556L15.1259 12.5675V7.88645H11.4026L6.32056 0ZM8.5322 1.20588L12.0601 6.68057H16.3318V13.0815L13.3231 15.9696V22.5801H16.1931V17.1031L19.9438 13.3464L19.9605 2.64627L14.5551 2.64055L13.5363 1.20588H8.5322Z" fill="#F8F8F8"></path><path d="M36.8379 7.28359H32.8404L32.8464 12.8246L35.8491 15.7127V23.1831H31.7732V17.3527L28.0229 13.5964L28.0109 2.04405L33.7086 2.03802L34.7276 0.603027H41.1429L36.8379 7.28359Z" fill="#1A1A1A"></path><path fill-rule="evenodd" clip-rule="evenodd" d="M34.4162 0H42.2486L37.1666 7.88645H33.4439L33.449 12.5676L36.4519 15.456V23.786H31.1702V17.6021L27.4202 13.846L27.4072 1.44166L33.397 1.43532L34.4162 0ZM35.0389 1.20588L34.0201 2.64055L28.6144 2.64627L28.6255 13.3466L32.3761 17.1031V22.5801H35.2461V15.9692L32.2437 13.0814L32.2367 6.68057H36.5091L40.037 1.20588H35.0389Z" fill="#F8F8F8"></path></svg>