<svg width="50" height="50" viewBox="0 0 48 48" fill="none" xmlns="http://www.w3.org/2000/svg"><path d="M23.9145 43.9327L36.2333 36.8987V32.3349L31.8814 29.0802L23.9145 14.498L15.9476 29.0802L11.6222 32.3508V36.9305L23.9145 43.9327Z" fill="#1A1A1A"></path><path fill-rule="evenodd" clip-rule="evenodd" d="M23.9145 13.3926L32.2913 28.7249L36.7634 32.0695V37.2066L23.9148 44.5431L11.0922 37.2387V32.0871L15.537 28.7262L23.9145 13.3926ZM23.9145 15.6037L16.3581 29.4344L12.1523 32.6146V36.6226L23.9142 43.3226L35.7032 36.5911V32.6004L31.4716 29.4357L23.9145 15.6037Z" fill="#F8F8F8"></path><path d="M27.6144 21.2671L26.9518 8.83699L26.4165 4.84027L23.9198 0.976074L21.4179 4.84027L20.8825 8.83699L20.204 21.2141L16.0006 29.0061V34.0364L23.9198 38.6162L31.8338 34.0364V29.0061L27.6144 21.2671Z" fill="#1A1A1A"></path><path fill-rule="evenodd" clip-rule="evenodd" d="M23.9202 0L26.926 4.65225L27.4799 8.78758L28.1372 21.1188L32.3637 28.8709V34.3421L23.9198 39.2286L15.4705 34.3422V28.8722L19.6812 21.0667L20.3543 8.78718L20.9082 4.65198L23.9202 0ZM21.9274 5.02849L21.4106 8.88672L20.7268 21.3614L16.5306 29.1399V33.7306L23.9197 38.0038L31.3036 33.7307V29.1412L27.0914 21.4153L26.4236 8.88633L25.9067 5.02822L23.9193 1.95207L21.9274 5.02849Z" fill="#F8F8F8"></path><path d="M20.7659 29.6158L23.9198 23.4246L27.0684 29.6158V45.5125L23.9198 47.3837L20.7659 45.5125V29.6158Z" fill="#1A1A1A"></path><path fill-rule="evenodd" clip-rule="evenodd" d="M23.9202 22.2559L27.5985 29.4886V45.814L23.92 48L20.2358 45.8142V29.4884L23.9202 22.2559ZM21.296 29.7428V45.2105L23.9196 46.767L26.5384 45.2108V29.7427L23.9194 24.593L21.296 29.7428Z" fill="#F8F8F8"></path><path d="M36.2333 27.4423V21.9879L31.8337 18.834V24.1241V29.059V29.0696L36.2121 32.3507V36.9305L32.6129 38.9819V43.9115L40.3042 39.3317V30.5061L36.2333 27.4423Z" fill="#1A1A1A"></path><path fill-rule="evenodd" clip-rule="evenodd" d="M31.3036 17.8018L36.7633 21.7156V27.1778L40.8342 30.2416V39.633L32.0828 44.844V38.6738L35.682 36.6225V32.6159L31.3036 29.3347V17.8018ZM32.3637 19.8661V28.8044L36.7421 32.0855V37.2385L33.1429 39.2899V42.9789L39.7741 39.0304V30.7705L35.7032 27.7067V22.2601L32.3637 19.8661Z" fill="#F8F8F8"></path><path d="M11.601 27.4423V21.9879L16.0005 18.834V24.1241V29.059V29.0696L11.6222 32.3507V36.9305L15.2213 38.9819V43.9115L7.53003 39.3317V30.5061L11.601 27.4423Z" fill="#1A1A1A"></path><path fill-rule="evenodd" clip-rule="evenodd" d="M16.5306 17.8018V29.3347L12.1523 32.6159V36.6225L15.7514 38.6738V44.844L7 39.633V30.2416L11.0709 27.1778V21.7156L16.5306 17.8018ZM12.1311 22.2601V27.7067L8.06014 30.7705V39.0304L14.6913 42.9789V39.2899L11.0921 37.2385V32.0855L15.4705 28.8044V19.8661L12.1311 22.2601Z" fill="#F8F8F8"></path></svg>