<svg width="88" height="87" viewBox="0 0 88 87" fill="none" xmlns="http://www.w3.org/2000/svg">
<g clip-path="url(#clip0_104_108)">
<path d="M26.6953 15L43.6953 2L60.6953 15" stroke="white" stroke-width="4" stroke-linecap="round" stroke-linejoin="round"/>
<path d="M43.6953 2.5V36.5" stroke="white" stroke-width="4" stroke-linecap="round" stroke-linejoin="round"/>
<path d="M2.19531 58.5L42.659 84.6533C42.986 84.8647 43.4061 84.867 43.7354 84.6592L85.1953 58.5" stroke="white" stroke-width="4" stroke-linecap="round" stroke-linejoin="round"/>
<path d="M43.1953 45.5L83.8692 22.2578C84.4861 21.9053 84.5105 20.9872 83.9148 20.5411L62.5555 4.54681" stroke="white" stroke-width="4" stroke-linecap="round" stroke-linejoin="round"/>
<path d="M25.1551 4.3034L3.48258 20.0639C2.88253 20.5002 2.89241 21.4166 3.50108 21.7803L43.1954 45.5" stroke="white" stroke-width="4" stroke-linecap="round" stroke-linejoin="round"/>
<path d="M2.19531 40.5L42.6778 65.1845C42.9959 65.3784 43.3954 65.3795 43.7145 65.1873L84.6953 40.5" stroke="white" stroke-width="4" stroke-linecap="round" stroke-linejoin="round"/>
</g>
<defs>
<clipPath id="clip0_104_108">
<rect width="88" height="87" fill="white"/>
</clipPath>
</defs>
</svg>
