<svg width="54" height="54" viewBox="0 0 54 54" fill="none" xmlns="http://www.w3.org/2000/svg">
<g clip-path="url(#clip0_109_188)">
<path d="M52 27C52 40.8 40.8 52 27 52C13.2 52 2 40.8 2 27C2 13.2 13.2 2 27 2" stroke="#D7504A" stroke-width="4" stroke-linecap="round" stroke-linejoin="round"/>
<path d="M52 12V2H42" stroke="#D7504A" stroke-width="4" stroke-linecap="round" stroke-linejoin="round"/>
<path d="M39.5 14.5L52 2" stroke="#D7504A" stroke-width="4" stroke-linecap="round" stroke-linejoin="round"/>
<path fill-rule="evenodd" clip-rule="evenodd" d="M36.8418 26.0023C37.3351 25.9771 37.7551 26.1569 38.1023 26.5417C38.1855 26.6514 38.2688 26.7609 38.352 26.8706C40.2073 30.4142 42.0386 33.9752 43.8459 37.553C44.059 38.1105 44.0511 38.6631 43.8221 39.2106C43.6161 39.5463 43.3348 39.77 42.9778 39.8815C42.8137 39.9307 42.6472 39.9657 42.4784 39.9868C38.7842 40.0044 35.0897 40.0044 31.3955 39.9868C30.2168 39.7339 29.7849 38.9664 30.0993 37.6845C30.1754 37.4548 30.2706 37.2357 30.3847 37.0268C32.1349 33.7071 33.8789 30.3832 35.617 27.0548C35.9057 26.5288 36.3141 26.1779 36.8418 26.0023Z" fill="white"/>
<path fill-rule="evenodd" clip-rule="evenodd" d="M27.1192 10.005C27.5851 9.97019 27.9866 10.1169 28.3239 10.4451C28.4205 10.56 28.5169 10.675 28.6135 10.79C29.9341 13.1845 31.2547 15.579 32.5753 17.9735C33.1779 19.4262 33.1392 20.8613 32.4594 22.2789C29.5634 27.4327 26.6674 32.5864 23.7713 37.7402C22.9575 39.0501 21.7952 39.7994 20.2845 39.988C17.6433 40.004 15.0021 40.004 12.361 39.988C11.3217 39.8237 10.8777 39.2093 11.0288 38.1446C11.0971 37.8853 11.1975 37.6396 11.33 37.4072C16.1799 28.6378 21.0298 19.8685 25.8797 11.0992C26.1561 10.5652 26.5693 10.2005 27.1192 10.005Z" fill="white"/>
</g>
<defs>
<clipPath id="clip0_109_188">
<rect width="54" height="54" fill="white"/>
</clipPath>
</defs>
</svg>
