<svg width="70" height="70" viewBox="0 0 70 70" fill="none" xmlns="http://www.w3.org/2000/svg">
<path d="M2 47C2 46.4477 2.44772 46 3 46H22C22.5523 46 23 46.4477 23 47V68H3C2.44772 68 2 67.5523 2 67V47Z" stroke="white" stroke-width="4"/>
<path d="M23 25C23 24.4477 23.4477 24 24 24H45C45.5523 24 46 24.4477 46 25V68H23V25Z" stroke="white" stroke-width="4"/>
<path d="M46 3C46 2.44771 46.4477 2 47 2H67C67.5523 2 68 2.44772 68 3V67C68 67.5523 67.5523 68 67 68H46V3Z" stroke="white" stroke-width="4"/>
</svg>
